<svg width="53" height="53" viewBox="0 0 53 53" fill="none" xmlns="http://www.w3.org/2000/svg">
<g clip-path="url(#clip0_229_2)">
<path d="M48.9276 0.471069H4.07239C1.82327 0.471069 0 2.26193 0 4.47107V48.529C0 50.7381 1.82327 52.529 4.07239 52.529H48.9276C51.1767 52.529 53 50.7381 53 48.529V4.47107C53 2.26193 51.1767 0.471069 48.9276 0.471069Z" fill="white"/>
<mask id="mask0_229_2" style="mask-type:luminance" maskUnits="userSpaceOnUse" x="8" y="8" width="37" height="37">
<path d="M44.5 8.5H8.5V44.5H44.5V8.5Z" fill="white"/>
</mask>
<g mask="url(#mask0_229_2)">
<path d="M44.4739 26.4361C44.4739 36.3422 36.4207 44.3721 26.487 44.3721C23.3724 44.3721 20.4426 43.5831 17.8881 42.1939C12.2949 39.1524 8.5 33.2363 8.5 26.4361C8.5 16.5304 16.553 8.5 26.4868 8.5C36.4207 8.5 44.4739 16.5304 44.4739 26.4361Z" fill="#20B276"/>
<path d="M33.667 31.5375C31.7638 33.4934 29.454 34.472 26.7382 34.472C25.0807 34.472 23.5407 34.1923 22.097 33.3796L22.0796 43.7944L21.9428 43.7576L21.8582 43.7359L21.7582 43.6819L21.7111 43.5967L21.6677 43.5008L21.7158 43.4406L16.9531 37.7779L16.9545 24.3918C16.9545 21.6026 17.906 19.2337 19.8095 17.2847C21.7125 15.3357 24.0221 14.3613 26.7382 14.3613C29.454 14.3613 31.7636 15.3391 33.667 17.2954C35.5701 19.2514 36.522 21.6253 36.522 24.4166C36.522 27.2082 35.5701 29.5816 33.667 31.5375ZM30.0341 21.0262C29.1304 20.0967 28.0318 19.6321 26.7382 19.6321C25.4443 19.6321 24.3456 20.0967 23.4423 21.0262C22.5386 21.9558 22.0867 23.0857 22.0867 24.4169C22.0867 25.7476 22.5384 26.8775 23.4423 27.8071C24.3456 28.7368 25.4443 29.2016 26.7382 29.2016C28.0318 29.2016 29.1304 28.7368 30.0341 27.8071C30.9376 26.8775 31.3895 25.7476 31.3895 24.4169C31.3895 23.0857 30.9376 21.9557 30.0341 21.0262Z" fill="#147F52"/>
<path d="M33.2923 31.1679C31.389 33.124 29.0795 34.1024 26.3636 34.1024C24.7061 34.1024 23.1558 33.696 21.7123 32.8833L21.7108 43.733C21.7108 43.733 21.3595 43.6366 20.9022 43.4894C20.7894 43.4531 20.6756 43.4141 20.5563 43.3722C20.4996 43.3521 20.4719 43.3402 20.4135 43.3236C20.2639 43.2806 20.0743 43.1976 19.9282 43.1409C19.4371 42.9502 19.0392 42.7685 19.0296 42.764C19.02 42.7594 17.6145 42.091 17.456 41.9921C17.314 41.9037 17.1876 41.8344 17.0793 41.7568C17.0447 41.7323 17.0186 41.7146 16.9858 41.692C16.7283 41.5155 16.5844 41.4142 16.5844 41.4142L16.5801 24.0224C16.5801 21.233 17.5316 18.8642 19.435 16.9154C21.3382 14.9661 23.6477 13.9919 26.3637 13.9919C29.0797 13.9919 31.3892 14.9697 33.2925 16.9261C35.1956 18.8821 36.1476 21.2559 36.1476 24.0471C36.1474 26.8384 35.1955 29.2118 33.2923 31.1679ZM29.6595 20.6566C28.7557 19.727 27.6573 19.2625 26.3635 19.2625C25.0695 19.2625 23.9709 19.727 23.0675 20.6566C22.1639 21.5862 21.7121 22.7161 21.7121 24.0471C21.7121 25.378 22.1639 26.5079 23.0675 27.4373C23.9709 28.3673 25.0695 28.832 26.3635 28.832C27.6571 28.832 28.7557 28.3673 29.6595 27.4373C30.5629 26.5079 31.0149 25.378 31.0149 24.0471C31.0149 22.7161 30.5629 21.5862 29.6595 20.6566Z" fill="white"/>
</g>
</g>
<defs>
<clipPath id="clip0_229_2">
<rect width="53" height="53" fill="white"/>
</clipPath>
</defs>
</svg>
