<svg width="577" height="137" viewBox="0 0 577 137" fill="none" xmlns="http://www.w3.org/2000/svg">
<g clip-path="url(#clip0_3498_6195)">
<g clip-path="url(#clip1_3498_6195)">
<g clip-path="url(#clip2_3498_6195)">
<path d="M66.4249 33.4979L30.3187 69.7944C23.3834 76.7662 12.1368 76.7662 5.20148 69.7944C-1.73383 62.8225 -1.73383 51.5167 5.20148 44.5448L28.7514 20.8754C35.6867 13.9035 46.9332 13.9035 53.8685 20.8754L66.4249 33.4979Z" fill="#101010"/>
<path d="M17.9357 104.455L54.0419 68.1584C60.9772 61.1865 72.2238 61.1865 79.1591 68.1584C86.0944 75.1302 86.0944 86.4361 79.1591 93.4079L55.6137 117.077C48.6783 124.049 37.4318 124.049 30.4965 117.077L17.9401 104.455H17.9357Z" fill="#101010"/>
</g>
</g>
<g clip-path="url(#clip3_3498_6195)">
<path fill-rule="evenodd" clip-rule="evenodd" d="M464.092 0.984375H452.225V1.08553C436.272 1.12007 426.033 11.6794 426.033 27.9439V36.1629V52.8944V108.373H445.699V54.7718H460.863V36.1629H445.699V28.2374C445.699 20.1652 451.422 18.2572 455.825 18.2572H464.087V4.19801H464.092V0.984375ZM201.151 65.9567C201.592 58.0313 206.435 51.867 214.654 51.867C224.046 51.867 228.009 58.178 228.009 66.2503V108.373H247.529V62.8746C247.529 47.0237 239.016 34.2549 220.671 34.2549C213.773 34.2549 205.848 36.6032 201.151 42.1804V1.08544L181.632 6.02095V108.373H201.151V65.9567ZM113.69 88.2654C114.57 96.4844 122.055 110.574 143.776 110.574C162.709 110.574 171.808 98.5391 171.808 86.7977C171.808 76.2305 164.617 67.5712 150.381 64.6358L140.107 62.4343C136.145 61.7005 133.503 59.4989 133.503 55.9765C133.503 51.867 137.612 48.7849 142.749 48.7849C150.968 48.7849 154.05 54.2153 154.637 58.4716L170.927 54.8024C170.047 47.0237 163.149 33.9614 142.602 33.9614C127.045 33.9614 115.598 44.6754 115.598 57.591C115.598 67.7179 121.909 76.0837 135.851 79.1658L145.391 81.3673C150.968 82.5415 153.169 85.1833 153.169 88.4122C153.169 92.2281 150.087 95.6038 143.629 95.6038C135.117 95.6038 130.861 90.3201 130.421 84.5962L113.69 88.2654ZM275.558 72.2677C275.558 85.7703 284.364 92.8152 293.903 92.8152C303.443 92.8152 312.249 85.9171 312.249 72.2677C312.249 58.6183 303.443 51.7203 293.903 51.7203C284.364 51.7203 275.558 58.6183 275.558 72.2677ZM256.038 72.2677C256.038 49.959 272.329 33.9614 293.903 33.9614C315.477 33.9614 331.768 49.959 331.768 72.2677C331.768 94.4296 315.477 110.574 293.903 110.574C272.329 110.574 256.038 94.4296 256.038 72.2677ZM360.825 136.258V101.328C364.347 106.171 371.685 110.134 381.665 110.134C402.065 110.134 415.714 93.9893 415.714 72.121C415.714 50.6929 403.533 34.5485 382.399 34.5485C371.539 34.5485 363.467 39.3918 360.238 44.969L356.216 37.0435L341.305 40.3458V136.258H360.825ZM396.488 72.2677C396.488 85.1833 388.563 92.6684 378.583 92.6684C368.603 92.6684 360.531 85.0365 360.531 72.2677C360.531 59.4989 368.603 52.0138 378.583 52.0138C388.563 52.0138 396.488 59.4989 396.488 72.2677ZM491.261 108.373V1.08544L471.741 5.56186V108.373H491.261ZM520.377 72.2677C520.377 85.7703 529.183 92.8152 538.722 92.8152C548.262 92.8152 557.068 85.9171 557.068 72.2677C557.068 58.6183 548.262 51.7203 538.722 51.7203C529.183 51.7203 520.377 58.6183 520.377 72.2677ZM500.858 72.2677C500.858 49.959 517.148 33.9614 538.722 33.9614C560.297 33.9614 576.587 49.959 576.587 72.2677C576.587 94.4296 560.297 110.574 538.722 110.574C517.148 110.574 500.858 94.4296 500.858 72.2677Z" fill="#101010"/>
</g>
</g>
<defs>
<clipPath id="clip0_3498_6195">
<rect width="577" height="137" fill="white"/>
</clipPath>
<clipPath id="clip1_3498_6195">
<rect width="89.0044" height="108.664" fill="white" transform="translate(0 15.6465)"/>
</clipPath>
<clipPath id="clip2_3498_6195">
<rect width="84.3559" height="110.05" fill="white" transform="translate(0 15.6465)"/>
</clipPath>
<clipPath id="clip3_3498_6195">
<rect width="463.363" height="137" fill="white" transform="translate(113.637)"/>
</clipPath>
</defs>
</svg>
