<svg width="1644" height="432" viewBox="0 0 1644 432" fill="none" xmlns="http://www.w3.org/2000/svg">
<path d="M884.097 408.65V157.43H932.29V194.515L931.777 191.78C938.158 178.336 946.646 168.538 957.241 162.386C967.951 156.119 979.914 152.986 993.13 152.986C1008.62 152.986 1022.01 156.86 1033.29 164.607C1044.68 172.241 1053.46 183.349 1059.61 197.933C1065.76 212.402 1068.84 229.777 1068.84 250.057C1068.84 270.337 1065.7 287.711 1059.44 302.181C1053.29 316.536 1044.46 327.531 1032.95 335.164C1021.56 342.684 1008 346.443 992.275 346.443C978.604 346.443 966.413 343.31 955.703 337.044C945.107 330.664 936.506 320.353 929.897 306.111L934.683 305.77V408.65H884.097ZM974.16 307.991C986.579 307.991 996.491 302.807 1003.9 292.439C1011.3 281.958 1015 267.488 1015 249.031C1015 230.802 1011.36 216.674 1004.07 206.648C996.89 196.508 987.035 191.438 974.502 191.438C966.641 191.438 959.52 193.546 953.14 197.762C946.873 201.977 941.86 208.414 938.101 217.073C934.455 225.618 932.632 236.385 932.632 249.373C932.632 268.855 936.619 283.496 944.595 293.294C952.57 303.092 962.425 307.991 974.16 307.991ZM1149.77 346.443C1138.03 346.443 1127.21 344.393 1117.3 340.291C1107.39 336.076 1099.41 329.866 1093.37 321.663C1087.45 313.46 1084.49 303.206 1084.49 290.901C1084.49 277.685 1088.3 266.463 1095.94 257.234C1103.57 248.006 1114.68 240.999 1129.26 236.214C1143.84 231.315 1161.45 228.865 1182.07 228.865H1208.04L1204.97 233.479V222.884C1204.97 210.693 1202.75 201.635 1198.3 195.711C1193.86 189.673 1186.51 186.653 1176.26 186.653C1166.46 186.653 1158.94 189.274 1153.7 194.515C1148.57 199.642 1145.44 206.99 1144.3 216.561L1092.35 207.674C1094.28 197.42 1098.67 188.191 1105.51 179.988C1112.46 171.671 1122.03 165.063 1134.22 160.164C1146.41 155.265 1161.39 152.815 1179.16 152.815C1195.46 152.815 1209.24 155.436 1220.52 160.677C1231.8 165.804 1240.34 174.178 1246.16 185.799C1252.08 197.42 1255.04 212.972 1255.04 232.454V295.174C1255.04 299.048 1255.55 301.611 1256.58 302.864C1257.72 304.118 1260.06 304.744 1263.59 304.744H1271.96V342H1247.69C1234.36 342 1224.22 338.696 1217.27 332.088C1210.44 325.366 1207.02 315.739 1207.02 303.206V294.49L1215.91 297.908C1214.43 302.807 1212.26 308.048 1209.41 313.631C1206.56 319.214 1202.58 324.511 1197.45 329.524C1192.44 334.424 1186.06 338.468 1178.31 341.658C1170.56 344.848 1161.05 346.443 1149.77 346.443ZM1164.47 311.58C1172.44 311.58 1179.5 309.757 1185.66 306.111C1191.81 302.465 1196.65 296.997 1200.18 289.705C1203.72 282.299 1205.48 273.128 1205.48 262.19V258.26H1183.95C1171.76 258.26 1162.24 259.855 1155.41 263.045C1148.69 266.235 1143.96 270.166 1141.22 274.837C1138.49 279.394 1137.12 283.838 1137.12 288.167C1137.12 291.585 1137.92 295.117 1139.51 298.763C1141.22 302.409 1144.01 305.485 1147.89 307.991C1151.88 310.384 1157.4 311.58 1164.47 311.58ZM1368.1 346.443C1354.2 346.443 1341.1 344.45 1328.79 340.462C1316.49 336.36 1306.12 330.037 1297.69 321.492C1289.26 312.947 1283.91 301.839 1281.63 288.167L1328.11 278.938C1329.14 289.306 1332.78 297.168 1339.05 302.522C1345.43 307.763 1354.49 310.384 1366.22 310.384C1377.5 310.384 1385.88 308.162 1391.34 303.719C1396.81 299.161 1399.55 293.864 1399.55 287.825C1399.55 282.47 1397.38 277.856 1393.05 273.982C1388.84 270.109 1381.49 267.374 1371.01 265.779L1354.26 263.045C1347.65 262.02 1340.59 260.652 1333.07 258.943C1325.66 257.12 1318.65 254.443 1312.05 250.911C1305.44 247.265 1300.03 242.252 1295.81 235.872C1291.6 229.492 1289.49 221.289 1289.49 211.263C1289.49 199.072 1292.74 188.647 1299.23 179.988C1305.84 171.215 1314.95 164.55 1326.57 159.993C1338.19 155.322 1351.47 152.986 1366.39 152.986C1380.18 152.986 1392.77 155.037 1404.16 159.139C1415.55 163.126 1425.07 169.051 1432.7 176.912C1440.45 184.66 1445.46 194.287 1447.74 205.794L1401.26 215.364C1400.46 210.693 1398.92 206.307 1396.64 202.205C1394.48 198.104 1391.12 194.799 1386.56 192.293C1382 189.673 1375.85 188.362 1368.1 188.362C1359.33 188.362 1352.32 190.071 1347.08 193.489C1341.95 196.907 1339.39 201.578 1339.39 207.503C1339.39 211.832 1340.81 215.364 1343.66 218.099C1346.63 220.833 1350.61 223.055 1355.63 224.764C1360.75 226.359 1366.51 227.726 1372.89 228.865L1392.03 232.112C1401.83 233.707 1411.11 236.499 1419.88 240.486C1428.77 244.36 1436.01 249.943 1441.59 257.234C1447.17 264.526 1449.96 274.096 1449.96 285.945C1449.96 299.048 1446.37 310.099 1439.2 319.1C1432.13 328.1 1422.39 334.936 1409.97 339.607C1397.67 344.165 1383.71 346.443 1368.1 346.443ZM1549.35 346.443C1535.45 346.443 1522.35 344.45 1510.04 340.462C1497.74 336.36 1487.37 330.037 1478.94 321.492C1470.51 312.947 1465.15 301.839 1462.88 288.167L1509.36 278.938C1510.38 289.306 1514.03 297.168 1520.3 302.522C1526.68 307.763 1535.73 310.384 1547.47 310.384C1558.75 310.384 1567.12 308.162 1572.59 303.719C1578.06 299.161 1580.79 293.864 1580.79 287.825C1580.79 282.47 1578.63 277.856 1574.3 273.982C1570.09 270.109 1562.74 267.374 1552.25 265.779L1535.51 263.045C1528.9 262.02 1521.83 260.652 1514.32 258.943C1506.91 257.12 1499.9 254.443 1493.29 250.911C1486.69 247.265 1481.28 242.252 1477.06 235.872C1472.84 229.492 1470.74 221.289 1470.74 211.263C1470.74 199.072 1473.98 188.647 1480.48 179.988C1487.09 171.215 1496.2 164.55 1507.82 159.993C1519.44 155.322 1532.72 152.986 1547.64 152.986C1561.43 152.986 1574.02 155.037 1585.41 159.139C1596.8 163.126 1606.32 169.051 1613.95 176.912C1621.7 184.66 1626.71 194.287 1628.99 205.794L1582.5 215.364C1581.71 210.693 1580.17 206.307 1577.89 202.205C1575.72 198.104 1572.36 194.799 1567.81 192.293C1563.25 189.673 1557.1 188.362 1549.35 188.362C1540.58 188.362 1533.57 190.071 1528.33 193.489C1523.2 196.907 1520.64 201.578 1520.64 207.503C1520.64 211.832 1522.06 215.364 1524.91 218.099C1527.87 220.833 1531.86 223.055 1536.87 224.764C1542 226.359 1547.75 227.726 1554.13 228.865L1573.28 232.112C1583.07 233.707 1592.36 236.499 1601.13 240.486C1610.02 244.36 1617.25 249.943 1622.84 257.234C1628.42 264.526 1631.21 274.096 1631.21 285.945C1631.21 299.048 1627.62 310.099 1620.44 319.1C1613.38 328.1 1603.64 334.936 1591.22 339.607C1578.92 344.165 1564.96 346.443 1549.35 346.443Z" fill="black"/>
<path d="M980 246V270.5C921.5 277.992 840 359.5 810.5 417.5H795L854.5 285.5H697V266.5C762.5 258 862 178.5 908 104H932L854.5 246H980Z" fill="#87F901"/>
<path d="M969 249V264.008C910.5 271.5 826 359 803.5 414.5H784.5L843.5 285.5H686V266.5C751.5 258 850.5 181.5 896.5 107H919L840 249H969Z" fill="#6535FF" stroke="#6535FF" stroke-width="6"/>
<path d="M96.3867 346.443C82.487 346.443 69.3848 344.45 57.0801 340.462C44.7754 336.36 34.4076 330.037 25.9766 321.492C17.5456 312.947 12.1908 301.839 9.91211 288.167L56.3965 278.938C57.4219 289.306 61.0677 297.168 67.334 302.522C73.7142 307.763 82.7718 310.384 94.5068 310.384C105.786 310.384 114.16 308.162 119.629 303.719C125.098 299.161 127.832 293.864 127.832 287.825C127.832 282.47 125.667 277.856 121.338 273.982C117.122 270.109 109.774 267.374 99.292 265.779L82.5439 263.045C75.9359 262.02 68.8721 260.652 61.3525 258.943C53.9469 257.12 46.9401 254.443 40.332 250.911C33.724 247.265 28.3122 242.252 24.0967 235.872C19.8812 229.492 17.7734 221.289 17.7734 211.263C17.7734 199.072 21.0205 188.647 27.5146 179.988C34.1227 171.215 43.2373 164.55 54.8584 159.993C66.4795 155.322 79.7526 152.986 94.6777 152.986C108.464 152.986 121.053 155.037 132.446 159.139C143.84 163.126 153.353 169.051 160.986 176.912C168.734 184.66 173.747 194.287 176.025 205.794L129.541 215.364C128.743 210.693 127.205 206.307 124.927 202.205C122.762 198.104 119.401 194.799 114.844 192.293C110.286 189.673 104.134 188.362 96.3867 188.362C87.6139 188.362 80.6071 190.071 75.3662 193.489C70.2393 196.907 67.6758 201.578 67.6758 207.503C67.6758 211.832 69.0999 215.364 71.9482 218.099C74.9105 220.833 78.8981 223.055 83.9111 224.764C89.0381 226.359 94.7917 227.726 101.172 228.865L120.312 232.112C130.111 233.707 139.396 236.499 148.169 240.486C157.056 244.36 164.29 249.943 169.873 257.234C175.456 264.526 178.247 274.096 178.247 285.945C178.247 299.048 174.658 310.099 167.48 319.1C160.417 328.1 150.675 334.936 138.257 339.607C125.952 344.165 111.995 346.443 96.3867 346.443ZM203.807 342V85.6523H254.734V200.667L251.829 193.147C257.298 180.501 265.159 170.646 275.413 163.582C285.781 156.518 298.257 152.986 312.84 152.986C327.195 152.986 338.93 156.233 348.045 162.728C357.16 169.222 363.938 178.222 368.382 189.729C372.825 201.237 375.047 214.51 375.047 229.549V342H324.119V235.53C324.119 220.377 322.125 209.269 318.138 202.205C314.15 195.027 306.631 191.438 295.579 191.438C282.249 191.438 272.109 196.508 265.159 206.648C258.209 216.788 254.734 231.998 254.734 252.278V342H203.807ZM492.208 346.443C473.637 346.443 457.231 342.342 442.989 334.139C428.862 325.936 417.81 314.599 409.835 300.13C401.86 285.547 397.872 268.742 397.872 249.715C397.872 230.574 401.86 213.769 409.835 199.3C417.81 184.716 428.862 173.38 442.989 165.291C457.231 157.088 473.637 152.986 492.208 152.986C510.893 152.986 527.299 157.088 541.427 165.291C555.668 173.38 566.777 184.716 574.752 199.3C582.727 213.769 586.715 230.574 586.715 249.715C586.715 268.855 582.727 285.717 574.752 300.301C566.777 314.77 555.668 326.106 541.427 334.31C527.185 342.399 510.779 346.443 492.208 346.443ZM492.379 309.017C505.025 309.017 514.994 303.719 522.286 293.123C529.692 282.413 533.395 267.944 533.395 249.715C533.395 231.372 529.692 216.902 522.286 206.307C514.994 195.711 504.968 190.413 492.208 190.413C479.562 190.413 469.535 195.711 462.13 206.307C454.838 216.902 451.192 231.372 451.192 249.715C451.192 268.058 454.838 282.527 462.13 293.123C469.535 303.719 479.618 309.017 492.379 309.017ZM611.249 408.65V157.43H659.442V194.515L658.93 191.78C665.31 178.336 673.798 168.538 684.394 162.386C695.103 156.119 707.066 152.986 720.282 152.986C735.777 152.986 749.164 156.86 760.443 164.607C771.837 172.241 780.609 183.349 786.762 197.933C792.914 212.402 795.99 229.777 795.99 250.057C795.99 270.337 792.857 287.711 786.591 302.181C780.438 316.536 771.609 327.531 760.102 335.164C748.708 342.684 735.15 346.443 719.428 346.443C705.756 346.443 693.565 343.31 682.855 337.044C672.26 330.664 663.658 320.353 657.05 306.111L661.835 305.77V408.65H611.249ZM701.312 307.991C713.731 307.991 723.643 302.807 731.049 292.439C738.454 281.958 742.157 267.488 742.157 249.031C742.157 230.802 738.511 216.674 731.22 206.648C724.042 196.508 714.187 191.438 701.654 191.438C693.793 191.438 686.672 193.546 680.292 197.762C674.026 201.977 669.013 208.414 665.253 217.073C661.607 225.618 659.784 236.385 659.784 249.373C659.784 268.855 663.772 283.496 671.747 293.294C679.722 303.092 689.577 307.991 701.312 307.991Z" fill="black"/>
</svg>
