<svg width="1717" height="512" viewBox="0 0 1717 512" fill="none" xmlns="http://www.w3.org/2000/svg">
<g clip-path="url(#clip0)">
<path d="M826.853 244.39C821.146 262.954 816.691 278.85 813.487 292.078C810.285 305.377 808.753 312.406 808.753 312.963L799.843 282.332L770.812 183.337H718.04L703.488 232.835C690.724 277.483 682.927 304.194 680.098 312.967C680.098 312.069 678.494 305.031 675.292 292.083C672.09 279.135 667.634 262.845 661.926 244.395L641.81 178.118H590.013L657.332 389.547H704.184L716.998 347.779C721.871 332.603 727.161 314.57 733.009 293.686C738.856 272.802 742.616 258.879 744.426 252.403C746.189 259.227 750.081 273.149 756.103 294.171C762.157 315.055 767.447 332.949 772.114 348.124L784.645 389.893H831.506L898.758 178.464H847.319L826.853 244.39Z" fill="url(#paint0_linear)"/>
<path d="M1024.45 255.255C1018.33 248.513 1010.77 243.236 1002.34 239.815C993.9 236.394 984.801 234.917 975.715 235.493C962.119 235.25 948.713 238.715 936.938 245.518C925.631 252.296 916.481 262.145 910.552 273.92C904.062 287.093 900.837 301.635 901.152 316.317C900.856 330.347 903.862 344.25 909.928 356.904C915.376 368.144 923.954 377.571 934.629 384.054C945.741 390.652 958.469 394.026 971.39 393.8C981.473 393.882 991.467 391.915 1000.77 388.02C1008.98 384.709 1016.18 379.309 1021.66 372.354V389.551H1065.89V240.775H1027.32L1024.45 255.255ZM1009.75 341.859C1006.35 345.316 1002.26 348.024 997.754 349.811C993.246 351.598 988.415 352.423 983.57 352.234C978.812 352.412 974.071 351.579 969.658 349.791C965.245 348.003 961.262 345.299 957.97 341.859C951.754 334.148 948.364 324.542 948.364 314.638C948.364 304.733 951.754 295.127 957.97 287.416C961.272 283.945 965.279 281.223 969.723 279.433C974.166 277.643 978.942 276.828 983.728 277.041C988.562 276.834 993.387 277.637 997.894 279.4C1002.4 281.162 1006.49 283.845 1009.9 287.277C1013.32 290.864 1015.98 295.106 1017.72 299.748C1019.45 304.391 1020.23 309.336 1020 314.287C1020.22 319.335 1019.43 324.376 1017.66 329.111C1015.9 333.847 1013.21 338.182 1009.75 341.859Z" fill="url(#paint1_linear)"/>
<path d="M1159.5 244.875C1153.33 248.412 1148.68 254.118 1146.48 260.887L1143.49 240.766H1101.3V389.538H1147.46V319.924C1147.14 314.586 1147.93 309.239 1149.77 304.22C1151.62 299.2 1154.48 294.616 1158.18 290.753C1162.32 287.08 1167.14 284.265 1172.38 282.472C1177.61 280.679 1183.15 279.945 1188.68 280.311C1191 280.279 1193.33 280.396 1195.64 280.661V240.77C1191.05 239.858 1186.39 239.416 1181.71 239.45C1173.96 239.265 1166.3 241.139 1159.5 244.88V244.875Z" fill="url(#paint2_linear)"/>
<path d="M1308.26 352.431C1302.41 355.285 1295.97 356.694 1289.46 356.54C1280.88 356.896 1272.48 354.07 1265.86 348.604C1262.87 345.992 1260.46 342.786 1258.79 339.19C1257.11 335.594 1256.2 331.687 1256.11 327.72H1361.66C1363.08 321.11 1363.76 314.361 1363.68 307.6C1363.9 294.614 1360.66 281.805 1354.28 270.493C1348.01 259.629 1338.79 250.768 1327.68 244.942C1315.59 238.592 1302.08 235.406 1288.42 235.681C1274.4 235.476 1260.56 238.829 1248.18 245.427C1236.39 251.804 1226.71 261.481 1220.34 273.273C1213.84 286.164 1210.45 300.399 1210.45 314.835C1210.45 329.271 1213.84 343.506 1220.34 356.397C1226.77 368.146 1236.43 377.808 1248.18 384.242C1260.86 391.036 1275.08 394.439 1289.47 394.123C1306.99 394.574 1324.21 389.563 1338.76 379.782C1345.26 375.493 1350.84 369.945 1355.17 363.466C1359.5 356.987 1362.49 349.708 1363.96 342.056H1319.13C1316.76 346.623 1312.94 350.273 1308.27 352.431H1308.26ZM1265.65 279.673C1271.85 275.364 1279.22 273.054 1286.78 273.054C1294.33 273.054 1301.7 275.364 1307.91 279.673C1310.6 281.791 1312.78 284.499 1314.26 287.588C1315.75 290.678 1316.5 294.067 1316.47 297.494H1256.81C1256.88 294.069 1257.69 290.7 1259.19 287.622C1260.7 284.544 1262.85 281.831 1265.51 279.673H1265.65Z" fill="url(#paint3_linear)"/>
<path d="M1458.83 178.113H1410.65V389.542H1458.83V178.113Z" fill="url(#paint4_linear)"/>
<path d="M1702.08 226.228C1692.46 209.711 1678.4 196.228 1661.49 187.311C1643.44 177.878 1623.31 173.093 1602.94 173.388C1582.47 172.97 1562.22 177.761 1544.11 187.311C1527.21 196.269 1513.19 209.813 1503.66 226.385C1493.8 243.872 1488.8 263.679 1489.18 283.751C1488.9 301.506 1492.79 319.078 1500.53 335.059C1507.85 350.033 1518.78 362.951 1532.34 372.651C1546.36 382.618 1562.53 389.131 1579.54 391.657V409.896C1579.54 445.679 1598.34 463.595 1635.93 463.643C1644.38 463.644 1652.79 462.638 1661 460.647V422.71C1656.87 423.462 1652.67 423.811 1648.47 423.752C1638.79 423.752 1632.52 421.803 1629.67 417.972C1626.53 413.115 1625.02 407.384 1625.36 401.61V392.044C1642.54 389.526 1658.89 382.964 1673.04 372.898C1686.68 363.101 1697.72 350.125 1705.21 335.095C1713.31 318.02 1717.25 299.266 1716.71 280.373C1716.16 261.479 1711.14 242.985 1702.06 226.407L1702.08 226.228ZM1657.73 317.638C1652.65 327.282 1644.92 335.277 1635.46 340.682C1625.55 346.287 1614.33 349.147 1602.95 348.968C1591.5 349.172 1580.2 346.385 1570.16 340.884C1560.65 335.571 1552.9 327.583 1547.88 317.911C1542.61 307.313 1539.87 295.636 1539.87 283.798C1539.87 271.96 1542.61 260.284 1547.88 249.685C1553.06 240.023 1560.86 232.014 1570.38 226.573C1580.38 220.965 1591.7 218.129 1603.16 218.359C1614.47 218.131 1625.63 220.969 1635.46 226.573C1644.88 232.03 1652.56 240.044 1657.6 249.685C1662.78 260.262 1665.47 271.883 1665.47 283.659C1665.47 295.435 1662.78 307.056 1657.6 317.633L1657.73 317.638Z" fill="url(#paint5_linear)"/>
<path d="M451.652 368.69V143.433C451.623 138.049 450.186 132.766 447.484 128.108C444.783 123.45 440.91 119.58 436.251 116.881L241.227 4.09728C236.538 1.41245 231.229 0 225.826 0C220.423 0 215.114 1.41245 210.425 4.09728L15.4009 116.723C10.7493 119.431 6.88303 123.303 4.18258 127.959C1.48213 132.614 0.0406352 137.893 0 143.275V368.69C0.0368453 374.072 1.47674 379.353 4.17757 384.009C6.87839 388.665 10.7468 392.537 15.4009 395.242L210.497 507.867C215.178 510.575 220.49 512 225.898 512C231.305 512 236.618 510.575 241.299 507.867L336.71 452.787C337.188 452.47 337.749 452.301 338.323 452.301C338.896 452.301 339.457 452.47 339.935 452.787L401.884 497.587C402.374 497.911 402.948 498.083 403.535 498.083C404.122 498.083 404.696 497.911 405.186 497.587L439.328 476.912C439.746 476.654 440.094 476.297 440.341 475.873C440.589 475.449 440.728 474.97 440.747 474.479C440.766 473.989 440.664 473.501 440.45 473.059C440.236 472.617 439.916 472.234 439.52 471.945L382.616 430.863C382.213 430.576 381.888 430.192 381.671 429.748C381.455 429.303 381.353 428.811 381.376 428.316C381.399 427.822 381.545 427.341 381.802 426.918C382.059 426.495 382.418 426.143 382.846 425.895L436.486 395.395C441.124 392.653 444.964 388.746 447.624 384.061C450.285 379.377 451.673 374.077 451.652 368.69ZM44.0444 149.387L224.347 45.294C224.797 45.0344 225.307 44.8978 225.826 44.8978C226.345 44.8978 226.855 45.0344 227.305 45.294L387.153 137.661C387.61 137.924 387.99 138.302 388.255 138.758C388.519 139.215 388.658 139.733 388.658 140.26C388.658 140.787 388.519 141.305 388.255 141.762C387.99 142.218 387.61 142.596 387.153 142.859L205.907 242.515C205.451 242.765 205.069 243.132 204.803 243.579C204.536 244.026 204.394 244.536 204.39 245.056L200.595 448.006C200.585 448.52 200.441 449.023 200.177 449.464C199.913 449.906 199.539 450.271 199.091 450.524C198.643 450.776 198.137 450.908 197.623 450.905C197.108 450.903 196.604 450.766 196.158 450.509L138.69 417.28C138.23 417.024 137.847 416.65 137.581 416.197C137.314 415.743 137.173 415.227 137.173 414.701V215.47C137.178 214.875 137.003 214.292 136.672 213.798C136.341 213.303 135.868 212.92 135.316 212.699L98.632 198.246C98.1813 198.074 97.6959 198.013 97.2168 198.069C96.7378 198.125 96.2794 198.296 95.8805 198.567C95.4816 198.838 95.154 199.202 94.9257 199.626C94.6973 200.051 94.5749 200.525 94.5688 201.007V386.895C94.576 387.421 94.4427 387.94 94.1825 388.398C93.9222 388.855 93.5446 389.235 93.0885 389.498C92.6324 389.761 92.1145 389.898 91.588 389.893C91.0616 389.889 90.5458 389.745 90.094 389.475L44.0396 362.923C43.5899 362.659 43.2169 362.282 42.9575 361.829C42.6982 361.377 42.5614 360.864 42.5607 360.343V151.966C42.5619 151.444 42.6994 150.932 42.9596 150.479C43.2198 150.027 43.5938 149.65 44.0444 149.387ZM356.834 386.933V314.858C356.831 314.364 356.705 313.879 356.469 313.446C356.232 313.013 355.893 312.644 355.48 312.374C355.067 312.103 354.593 311.939 354.102 311.896C353.61 311.853 353.115 311.931 352.661 312.125L316.016 327.943C315.477 328.168 315.016 328.547 314.692 329.034C314.369 329.52 314.196 330.091 314.197 330.675V415.002C314.196 415.524 314.06 416.036 313.8 416.489C313.541 416.941 313.168 417.318 312.718 417.582L247.583 455.213C247.128 455.485 246.608 455.63 246.079 455.633C245.549 455.635 245.028 455.495 244.571 455.228C244.114 454.96 243.737 454.575 243.479 454.112C243.222 453.649 243.094 453.125 243.108 452.595L246.558 270.507C246.563 269.978 246.709 269.459 246.983 269.005C247.257 268.551 247.647 268.179 248.114 267.928L404.693 182.089C405.149 181.839 405.661 181.712 406.181 181.72C406.7 181.728 407.209 181.871 407.656 182.135C408.104 182.399 408.475 182.775 408.733 183.226C408.991 183.677 409.128 184.187 409.13 184.706V360.348C409.129 360.874 408.988 361.39 408.721 361.844C408.455 362.297 408.072 362.671 407.612 362.927L361.257 389.728C360.791 389.999 360.261 390.137 359.723 390.129C359.185 390.12 358.659 389.965 358.203 389.68C357.747 389.395 357.377 388.991 357.133 388.511C356.889 388.031 356.781 387.494 356.82 386.957L356.834 386.933Z" fill="url(#paint6_linear)"/>
</g>
<defs>
<linearGradient id="paint0_linear" x1="744.385" y1="-570.083" x2="744.385" y2="360.88" gradientUnits="userSpaceOnUse">
<stop stop-color="#95F5FF"/>
<stop offset="1" stop-color="#044D82"/>
</linearGradient>
<linearGradient id="paint1_linear" x1="983.508" y1="-324.711" x2="983.508" y2="372.263" gradientUnits="userSpaceOnUse">
<stop stop-color="#95F5FF"/>
<stop offset="1" stop-color="#044D82"/>
</linearGradient>
<linearGradient id="paint2_linear" x1="1148.47" y1="-291.618" x2="1148.47" y2="369.124" gradientUnits="userSpaceOnUse">
<stop stop-color="#95F5FF"/>
<stop offset="1" stop-color="#044D82"/>
</linearGradient>
<linearGradient id="paint3_linear" x1="1287.21" y1="-324.741" x2="1287.21" y2="372.28" gradientUnits="userSpaceOnUse">
<stop stop-color="#95F5FF"/>
<stop offset="1" stop-color="#044D82"/>
</linearGradient>
<linearGradient id="paint4_linear" x1="1434.74" y1="-570.134" x2="1434.74" y2="360.788" gradientUnits="userSpaceOnUse">
<stop stop-color="#95F5FF"/>
<stop offset="1" stop-color="#044D82"/>
</linearGradient>
<linearGradient id="paint5_linear" x1="1602.96" y1="-852.776" x2="1602.96" y2="424.165" gradientUnits="userSpaceOnUse">
<stop stop-color="#95F5FF"/>
<stop offset="1" stop-color="#044D82"/>
</linearGradient>
<linearGradient id="paint6_linear" x1="225.826" y1="0" x2="225.826" y2="512" gradientUnits="userSpaceOnUse">
<stop stop-color="#95F5FF"/>
<stop offset="1" stop-color="#044D82"/>
</linearGradient>
<clipPath id="clip0">
<rect width="1716.77" height="512" fill="white"/>
</clipPath>
</defs>
</svg>
